<svg width="1250" height="294" viewBox="0 0 1250 294" fill="none" xmlns="http://www.w3.org/2000/svg">
<path d="M250.721 288.642V124.99L180.534 288.642H141.562L72.5406 124.99V288.642H0V5.17883H97.0954L163.789 165.246L233.582 5.17883H323.242V288.642H250.721Z" fill="#FF6600"/>
<path d="M1176.43 288.642V5.17896H1238.44C1243.91 5.17896 1249.3 10.6366 1249.3 16.5133V288.642H1176.43Z" fill="#FF6600"/>
<path d="M806.591 288.642L772.964 210.611C766.093 194.72 761.293 186.843 746.728 186.843H717.238V288.642H645.995V16.5133C645.995 10.6366 652.458 5.17896 657.086 5.17896H757.681C812.325 5.17896 859.176 16.5133 859.176 87.1102C859.176 118.705 841.66 151.067 808.884 157.602C825.217 163.147 841.66 184.115 850.598 206.833L883.004 288.642H806.591ZM752.903 59.8013H717.238V130.884H752.903C774.185 130.884 790.943 119.522 790.943 92.5785C790.943 65.2475 774.185 59.8013 752.903 59.8013Z" fill="#FF6600"/>
<path d="M453.944 233.191V170.871H580.851V117.264H453.944V60.6313L588.317 60.6309V5.17896H389.484C383.367 5.17896 378.408 10.1378 378.408 16.2546V288.644H593.147V233.191H453.944Z" fill="#FF6600"/>
<path d="M1047.57 0C960.517 0 896.175 49.2417 896.175 148.133C896.175 255.569 977.548 293.823 1047.95 293.823C1083.86 293.823 1104.76 288.94 1133.83 279.49L1110.14 226.33C1087.24 234.487 1075.24 237.664 1057.03 237.664C1005.56 237.664 968.843 203.885 968.843 148.133C968.843 95.2282 1001.39 56.1604 1051.35 56.1604C1070.1 56.1604 1087.5 60.083 1104.93 68.0782L1134.64 18.3672C1100.94 4.43232 1080.03 0 1047.57 0Z" fill="#FF6600"/>
</svg>
